<svg width="24.641113" height="49.291748" viewBox="0 0 24.6411 49.2917" fill="none" xmlns="http://www.w3.org/2000/svg" xmlns:xlink="http://www.w3.org/1999/xlink">
	<desc>
			Created with Pixso.
	</desc>
	<defs/>
	<path id="Vector (Stroke)" d="M10.52 49.29L14.66 39.08L24.64 34.85L20.5 24.64L24.64 14.43L14.66 10.2L10.52 0L0 4.46L0 24.41L0 24.8L0 25.2L0 44.82L10.52 49.29ZM1.1 23.28L1.1 5.21L9.93 1.47L13.59 10.5L1.1 23.28ZM14.37 11.3L23.2 15.04L19.54 24.08L1.87 24.08L14.37 11.3ZM1.87 25.2L19.54 25.2L23.2 34.24L14.37 37.98L1.87 25.2ZM13.59 38.78L9.93 47.82L1.1 44.07L1.1 26L13.59 38.78Z" fill="#243054" fill-opacity="1.000000" fill-rule="evenodd"/>
	<path id="Vector" d="M17.16 18.1C17.16 18.96 16.48 19.67 15.63 19.67C14.79 19.67 14.1 18.96 14.1 18.1C14.1 17.23 14.79 16.53 15.63 16.53C16.48 16.53 17.16 17.23 17.16 18.1Z" fill="#243054" fill-opacity="1.000000" fill-rule="nonzero"/>
	<path id="Vector" d="M8.48 8.69C8.48 9.56 7.79 10.26 6.95 10.26C6.1 10.26 5.41 9.56 5.41 8.69C5.41 7.82 6.1 7.12 6.95 7.12C7.79 7.12 8.48 7.82 8.48 8.69Z" fill="#243054" fill-opacity="1.000000" fill-rule="nonzero"/>
	<path id="Vector" d="M8.48 39.6C8.48 40.47 7.79 41.17 6.95 41.17C6.1 41.17 5.41 40.47 5.41 39.6C5.41 38.74 6.1 38.03 6.95 38.03C7.79 38.03 8.48 38.74 8.48 39.6Z" fill="#243054" fill-opacity="1.000000" fill-rule="nonzero"/>
	<path id="Vector" d="M17.16 30.64C17.16 31.51 16.48 32.21 15.63 32.21C14.79 32.21 14.1 31.51 14.1 30.64C14.1 29.78 14.79 29.07 15.63 29.07C16.48 29.07 17.16 29.78 17.16 30.64Z" fill="#243054" fill-opacity="1.000000" fill-rule="nonzero"/>
</svg>
